<?xml version="1.0" encoding="UTF-8" standalone="no"?>
<svg
   xmlns:dc="http://purl.org/dc/elements/1.1/"
   xmlns:cc="http://creativecommons.org/ns#"
   xmlns:rdf="http://www.w3.org/1999/02/22-rdf-syntax-ns#"
   xmlns:svg="http://www.w3.org/2000/svg"
   xmlns="http://www.w3.org/2000/svg"
   viewBox="0 0 25.877453 12.178788"
   height="12.178788"
   width="25.877453"
   id="svg2"
   version="1.1">
  <metadata
     id="metadata8">
    <rdf:RDF>
      <cc:Work
         rdf:about="">
        <dc:format>image/svg+xml</dc:format>
        <dc:type
           rdf:resource="http://purl.org/dc/dcmitype/StillImage" />
        <dc:title></dc:title>
      </cc:Work>
    </rdf:RDF>
  </metadata>
  <defs
     id="defs6" />
  <path
     id="path12"
     d="M 3.1614032,11.256962 C 2.2887412,10.586953 1.2202262,9.0965736 0.54129824,7.8221918 -1.7945878,3.4376195 3.9143642,-1.7876285 8.4112542,0.61903428 9.5320287,1.2188548 10.449027,2.1437844 10.449027,2.6744334 c 0,0.5306489 1.125,0.9648162 2.5,0.9648162 1.375,0 2.5,-0.4341673 2.5,-0.9648162 0,-1.5718767 3.917215,-3.19623401 6.064414,-2.51473952 1.093878,0.34718334 2.667418,1.66683852 3.496755,2.93256702 1.864428,2.8454765 0.685146,7.1741741 -3.175244,8.6080391 -1.9619,0.728709 -2.032651,0.804897 -4.889542,-1.064449 -1.576388,-1.031475 -2.496383,-2.9152305 -2.496383,-3.6118984 0,-2.1154125 -1.97095,-2.633429 -2.656075,-0.6980851 -0.861718,2.434184 -4.3305198,5.5674875 -5.6677558,5.5279515 -0.94332,0.283961 -2.091132,0.07315 -2.963793,-0.596857 z M 8.8775977,9.067821 C 11.898013,6.0474066 10.160182,1.6392496 5.9490272,1.6392496 c -2.680459,0 -4.5,1.8195411 -4.5,4.5 0,4.2111544 4.408157,5.9489854 7.4285705,2.9285714 z M 23.249027,9.4392496 c 1.542501,-1.5425006 1.542501,-5.0574994 0,-6.6 -2.657419,-2.65741907 -7.8,-0.7265966 -7.8,2.9285714 0,3.8235137 5.200201,6.271227 7.8,3.6714286 z" />
</svg>
